<?xml version="1.0" encoding="utf-8"?>
<!-- Generator: Adobe Illustrator 23.0.1, SVG Export Plug-In . SVG Version: 6.00 Build 0)  -->
<svg version="1.1" id="Layer_1" xmlns="http://www.w3.org/2000/svg" xmlns:xlink="http://www.w3.org/1999/xlink" x="0px" y="0px"
	 viewBox="0 0 1000 1000" style="enable-background:new 0 0 1000 1000;" xml:space="preserve">
<style type="text/css">
	.st0{fill:#BC8F53;}
	.st1{clip-path:url(#SVGID_2_);fill:url(#SVGID_3_);}
	.st2{fill:#051028;}
	.st3{font-family:'MyriadPro-Regular';}
	.st4{font-size:38.7612px;}
	.st5{letter-spacing:2;}
	.st6{letter-spacing:-1;}
	.st7{letter-spacing:1;}
</style>
<g>
	<g>
		<path class="st0" d="M810.76,524.26H293.74v-11.29c0-8.89-7.23-16.12-16.12-16.12h-11.29v-71.54h11.29
			c8.89,0,16.12-7.23,16.12-16.12V397.9h517.02v11.28c0,8.89,7.23,16.12,16.12,16.12h11.29v71.54h-11.29
			c-8.89,0-16.12,7.23-16.12,16.12V524.26z M296.97,521.04h510.57v-8.06c0-10.67,8.68-19.35,19.35-19.35h8.06v-65.09h-8.06
			c-10.67,0-19.35-8.68-19.35-19.35v-8.06H296.97v8.06c0,10.67-8.68,19.35-19.35,19.35h-8.06v65.09h8.06
			c10.67,0,19.35,8.68,19.35,19.35V521.04z"/>
	</g>
	<g>
		<defs>
			<path id="SVGID_1_" d="M303.2,409.19c0,13.54-10.97,24.51-24.51,24.51v54.77c13.53,0,24.51,10.97,24.51,24.51h498.1
				c0-13.53,10.97-24.51,24.51-24.51V433.7c-13.54,0-24.51-10.97-24.51-24.51H303.2z"/>
		</defs>
		<clipPath id="SVGID_2_">
			<use xlink:href="#SVGID_1_"  style="overflow:visible;"/>
		</clipPath>
		
			<radialGradient id="SVGID_3_" cx="127.5581" cy="1763.9836" r="2.189" gradientTransform="matrix(90.0509 0 0 -87.1067 -10934.4629 154115.8438)" gradientUnits="userSpaceOnUse">
			<stop  offset="0" style="stop-color:#E2B881"/>
			<stop  offset="0.2865" style="stop-color:#E2B881"/>
			<stop  offset="1" style="stop-color:#BC8F53"/>
		</radialGradient>
		<rect x="278.69" y="409.19" class="st1" width="547.12" height="103.79"/>
	</g>
	<g>
		<path class="st2" d="M818.78,461.08c-3.45-0.92-7.3-8.02-14.83-4.34c1.29-2.6,1.08-5.56-1.73-7.94c-3.57-3.01-6.91-0.12-6.91,2.79
			c0,2.82,2.87,4.23,4.16,3.74c-7.33,8.94-14.36-1.06-13.67-10.03c-0.27,0.1-0.54,0.2-0.81,0.26c-1.86,5.16-2.06,10.98,1.44,14.48
			c0.39,0.4,0.8,0.74,1.21,1.05c-0.41,0.3-0.82,0.65-1.21,1.05c-3.5,3.5-3.3,9.32-1.44,14.48c0.28,0.06,0.55,0.16,0.81,0.26
			c-0.69-8.97,6.34-18.97,13.67-10.03c-1.29-0.49-4.16,0.92-4.16,3.74c0,2.91,3.34,5.8,6.91,2.79c2.81-2.37,3.02-5.34,1.73-7.94
			C811.49,469.1,815.34,462,818.78,461.08"/>
		<path class="st2" d="M285.72,461.08c3.45-0.92,7.3-8.02,14.83-4.34c-1.29-2.6-1.07-5.56,1.73-7.94c3.56-3.01,6.91-0.12,6.91,2.79
			c0,2.82-2.87,4.23-4.16,3.74c7.33,8.94,14.36-1.06,13.67-10.03c0.27,0.1,0.54,0.2,0.82,0.26c1.86,5.16,2.06,10.98-1.44,14.48
			c-0.4,0.4-0.8,0.74-1.22,1.05c0.42,0.3,0.82,0.65,1.22,1.05c3.5,3.5,3.3,9.32,1.44,14.48c-0.28,0.06-0.55,0.16-0.82,0.26
			c0.69-8.97-6.34-18.97-13.67-10.03c1.29-0.49,4.16,0.92,4.16,3.74c0,2.91-3.34,5.8-6.91,2.79c-2.81-2.37-3.02-5.34-1.73-7.94
			C293.02,469.1,289.17,462,285.72,461.08"/>
	</g>
	<text transform="matrix(1 0 0 1 448.6582 568.8135)"><tspan x="0" y="0" class="st0 st3 st4 st5">C</tspan><tspan x="24.57" y="0" class="st0 st3 st4 st6">A</tspan><tspan x="47.25" y="0" class="st0 st3 st4 st7">TE</tspan><tspan x="89.46" y="0" class="st0 st3 st4 st7">RI</tspan><tspan x="123.38" y="0" class="st0 st3 st4 st7">N</tspan><tspan x="150.82" y="0" class="st0 st3 st4 st7">G</tspan><tspan x="177.76" y="0" class="st0 st3 st4"> </tspan></text>
	<path class="st0" d="M711.37,556.99l-47.72,2c-1.1,0.05-2.04-0.81-2.08-1.92c-0.05-1.11,0.81-2.04,1.92-2.08c0.05,0,0.11,0,0.17,0
		L711.37,556.99z"/>
	<g>
		<path class="st2" d="M372.94,444.02h26.18v5.27h-19.9v16.15h18.39v5.19h-18.39v21.99h-6.27V444.02z"/>
		<path class="st2" d="M451.4,467.82c0,16.73-10.17,25.6-22.57,25.6c-12.84,0-21.85-9.95-21.85-24.66
			c0-15.43,9.59-25.53,22.57-25.53C442.82,443.23,451.4,453.39,451.4,467.82z M413.68,468.61c0,10.38,5.63,19.69,15.5,19.69
			c9.95,0,15.58-9.16,15.58-20.19c0-9.66-5.05-19.76-15.5-19.76C418.87,448.35,413.68,457.94,413.68,468.61z"/>
		<path class="st2" d="M461.28,444.67c3.17-0.65,7.72-1.01,12.04-1.01c6.71,0,11.03,1.23,14.06,3.97c2.45,2.16,3.82,5.48,3.82,9.23
			c0,6.42-4.04,10.67-9.16,12.4v0.22c3.75,1.3,5.99,4.76,7.14,9.81c1.59,6.78,2.74,11.47,3.75,13.34h-6.49
			c-0.79-1.37-1.87-5.55-3.24-11.61c-1.44-6.71-4.04-9.23-9.73-9.45h-5.91v21.06h-6.27V444.67z M467.55,466.81h6.42
			c6.71,0,10.96-3.68,10.96-9.23c0-6.27-4.54-9.01-11.18-9.09c-3.03,0-5.19,0.29-6.2,0.58V466.81z"/>
		<path class="st2" d="M535.85,491.04c-2.31,1.15-6.92,2.31-12.84,2.31c-13.7,0-24.01-8.65-24.01-24.59
			c0-15.22,10.31-25.53,25.38-25.53c6.06,0,9.88,1.3,11.54,2.16l-1.51,5.12c-2.38-1.15-5.77-2.02-9.81-2.02
			c-11.39,0-18.97,7.28-18.97,20.05c0,11.9,6.85,19.54,18.68,19.54c3.82,0,7.72-0.79,10.24-2.02L535.85,491.04z"/>
		<path class="st2" d="M551.78,444.02v20.34h23.51v-20.34h6.35v48.6h-6.35v-22.79h-23.51v22.79h-6.27v-48.6H551.78z"/>
		<path class="st2" d="M619.5,469.84h-18.89v17.52h21.06v5.27h-27.33v-48.6h26.25v5.27h-19.98v15.36h18.89V469.84z"/>
		<path class="st2" d="M640.85,449.35h-14.78v-5.34h35.99v5.34h-14.86v43.27h-6.34V449.35z"/>
		<path class="st2" d="M678.42,449.35h-14.78v-5.34h35.99v5.34h-14.86v43.27h-6.34V449.35z"/>
		<path class="st2" d="M709.43,477.33l-5.05,15.29h-6.49l16.52-48.6h7.57l16.59,48.6h-6.71l-5.19-15.29H709.43z M725.37,472.43
			l-4.76-13.99c-1.08-3.17-1.8-6.06-2.52-8.87h-0.14c-0.72,2.88-1.52,5.84-2.45,8.8l-4.76,14.06H725.37z"/>
	</g>
	<path class="st0" d="M507.06,375.02l-15.05-34.4c0,0,15.05,16.66,31.17,14.51c16.12-2.15,23.65-33.32,23.65-33.32
		s7.52,31.17,23.65,33.32c16.12,2.15,31.17-14.51,31.17-14.51l-15.05,34.4H507.06z"/>
	<rect x="507.33" y="381.2" class="st0" width="79" height="4.84"/>
</g>
</svg>
